<svg width="455" height="40" viewBox="0 0 455 40" fill="none" xmlns="http://www.w3.org/2000/svg">
<g clip-path="url(#clip0)">
<path d="M20.1747 20.3578V29.3381H20.7302C22.503 29.3381 23.9331 28.8014 25.044 27.7162C26.155 26.6428 26.9587 25.2832 27.4551 23.6613L32.1589 25.8557C31.1307 28.5152 29.6888 30.5665 27.8451 31.9976C26.0013 33.4287 23.6258 34.1562 20.7183 34.1562H20.1629V39.9404H19.4537V34.1085C17.5864 33.9535 15.9199 33.4884 14.4662 32.737C13.0125 31.9738 11.7833 30.9839 10.7669 29.7674C9.7505 28.5391 8.97046 27.1318 8.43862 25.5218C7.89495 23.9117 7.58767 22.1944 7.50493 20.3578H0V19.5945H7.4813L7.51675 19.511C7.51675 17.6506 7.78859 15.8617 8.33225 14.1562C8.87591 12.4508 9.65595 10.9481 10.6842 9.62433C11.7124 8.30054 12.9652 7.22719 14.4426 6.36852C15.9199 5.52176 17.5982 5.00894 19.4656 4.85391V0H20.1747V4.83005H20.7656C23.614 4.83005 26.025 5.59332 27.9869 7.10793C29.9488 8.62254 31.2489 10.805 31.8871 13.6553L26.8641 14.9314C26.7577 14.1562 26.5214 13.4526 26.155 12.8205C25.7886 12.1765 25.3277 11.6398 24.7958 11.1866C24.2522 10.7335 23.6376 10.3876 22.9403 10.1252C22.243 9.87477 21.5102 9.74359 20.742 9.74359H20.1865V19.6064H39.6521V20.3697H20.1747V20.3578ZM19.4656 19.5945V9.81514C18.3073 10.006 17.3145 10.3995 16.499 11.0078C15.6835 11.616 14.998 12.3673 14.4662 13.2618C13.9225 14.1562 13.5325 15.1461 13.2961 16.2314C13.0598 17.3286 12.9416 18.4258 12.9416 19.5468V19.5826H19.4656V19.5945ZM19.4656 20.3578H12.9416C12.9889 21.3953 13.1661 22.4091 13.4616 23.4108C13.7571 24.4126 14.1589 25.319 14.6908 26.13C15.2226 26.941 15.8726 27.6207 16.6645 28.1813C17.4564 28.7418 18.39 29.0996 19.4774 29.2546V20.3578H19.4656Z" fill="#FF6482"/>
<path d="M63.2187 20.3578L61.9896 22.588V33.4884H59.7322V39.9523H59.023V33.4884H56.7657V22.588L55.5365 20.3578H39.5575V19.5945H55.1465L47.547 5.54562H53.3264L59.023 16.3626V0H59.7322V16.3626L65.3934 5.54562H71.2082L63.6087 19.5945H79.1977V20.3578H63.2187Z" fill="#FF6482"/>
<path d="M108.863 20.3578V26.5474C108.863 26.8694 108.875 27.2033 108.898 27.5492C108.922 27.895 108.993 28.2051 109.111 28.4914C109.229 28.7776 109.407 29.0042 109.643 29.195C109.879 29.3858 110.21 29.4693 110.636 29.4693H112.338L112.302 33.4645C111.77 33.5957 111.25 33.715 110.718 33.7984C110.187 33.8939 109.667 33.9416 109.135 33.9416C107.846 33.9416 106.806 33.6434 106.015 33.0471C105.223 32.4508 104.667 31.5086 104.348 30.2326C102.871 31.7472 101.181 32.8563 99.2897 33.548V39.9761H98.5806V33.8342C97.2332 34.2039 95.8859 34.3947 94.5504 34.3947C93.4394 34.3947 92.3521 34.2039 91.2647 33.8342C90.1774 33.4645 89.2201 32.9398 88.3809 32.26C87.5418 31.5802 86.8563 30.7573 86.3245 29.7794C85.7926 28.8134 85.5326 27.7281 85.5326 26.5236C85.5326 25.1401 85.769 23.9475 86.2299 22.9338C86.6909 21.9201 87.3173 21.0733 88.1091 20.3816H79.1268V19.6184H89.0901C90.3783 18.7716 91.8557 18.1395 93.5221 17.746C95.1886 17.3524 96.8668 17.0662 98.5806 16.9111V8.89684C98.3915 8.87299 98.2142 8.86106 98.0251 8.86106C97.8714 8.86106 97.6823 8.86106 97.4696 8.86106C95.5668 8.86106 94.184 9.3381 93.2976 10.3041C92.4112 11.2582 91.9857 12.6893 92.0093 14.5736L86.8681 14.2516L86.8327 14.0489C86.8327 12.5104 87.1282 11.1509 87.7191 9.99404C88.31 8.83721 89.1019 7.85927 90.0947 7.08408C91.0875 6.29696 92.2221 5.71258 93.4985 5.33095C94.7749 4.94931 96.1104 4.74657 97.5169 4.74657C97.706 4.74657 97.8714 4.74657 98.0369 4.74657C98.226 4.74657 98.4033 4.7585 98.5924 4.78235V0H99.3015V4.83005C100.566 4.93739 101.783 5.16398 102.942 5.50984C104.1 5.85569 105.128 6.38044 106.003 7.07215C106.889 7.76386 107.586 8.64639 108.095 9.70781C108.603 10.7692 108.863 12.0572 108.863 13.5838V19.6064H118.755V20.3697H108.863V20.3578ZM95.8268 21.5742C94.9167 21.8485 94.1012 22.1944 93.3921 22.6118C92.683 23.0292 92.1039 23.5182 91.6548 24.1145C91.2056 24.6989 90.9811 25.3906 90.9811 26.1896C90.9811 26.929 91.1229 27.5611 91.4184 28.0859C91.7138 28.6106 92.092 29.028 92.5884 29.362C93.073 29.6959 93.6285 29.9344 94.2313 30.0775C94.834 30.2206 95.4604 30.2922 96.0868 30.2922C96.9023 30.2922 97.7296 30.1849 98.5806 29.9702V20.8706C97.6587 21.0614 96.7368 21.2999 95.8268 21.5742ZM99.2897 16.8038C100.082 16.7561 100.85 16.7084 101.583 16.6607C102.315 16.6249 103.036 16.5772 103.722 16.5176V14.3232C103.722 12.4627 103.344 11.1389 102.575 10.3757C101.807 9.60048 100.72 9.12343 99.2897 8.93262V16.8038ZM103.722 20.3578H101.902C101.11 20.4413 100.235 20.5605 99.2897 20.7156V29.7317C100.637 29.2308 101.713 28.4079 102.516 27.2749C103.32 26.1419 103.722 24.7585 103.722 23.1008V20.3578Z" fill="#FF6482"/>
<path d="M150.051 20.3936V33.7269H144.946V20.3936H138.859V39.9881H138.15V20.3936H132.134V33.7269H126.993V20.3936H118.684V19.6303H126.957V5.47406H132.099V8.86106C132.867 7.8235 133.765 6.97675 134.793 6.30889C135.822 5.64103 136.944 5.18784 138.162 4.94932V0.0357819H138.871V4.83006C139.084 4.8062 139.284 4.78235 139.485 4.77043C139.686 4.7585 139.887 4.74657 140.1 4.74657C143.504 4.74657 146.009 5.65296 147.617 7.46572C149.224 9.27848 150.028 11.8426 150.028 15.1699V19.6422H158.336V20.4055H150.051V20.3936ZM138.138 19.5945V9.62433C136.294 9.839 134.817 10.5665 133.73 11.8187C132.642 13.071 132.087 14.6929 132.087 16.6846V19.5945H138.138ZM138.847 19.5945H144.934V15.5993C144.934 13.6315 144.508 12.1288 143.646 11.0912C142.795 10.0537 141.353 9.54085 139.32 9.54085H138.847V19.5945Z" fill="#FF6482"/>
<path d="M208.318 20.3578C208.814 20.9183 209.204 21.5862 209.488 22.3494C209.76 23.1246 209.89 24.0072 209.866 25.0209C209.866 26.6667 209.524 28.0739 208.838 29.2308C208.153 30.3876 207.254 31.3298 206.143 32.0453C205.032 32.7609 203.78 33.2976 202.385 33.6434C200.99 33.9893 199.584 34.1801 198.189 34.2039V39.9523H197.48V34.2039C195.211 34.1562 193.025 33.6315 190.909 32.6416C188.793 31.6518 187.08 30.2087 185.768 28.2886L190.2 25.0924C191.039 26.3685 192.103 27.3464 193.367 28.0262C194.632 28.706 196.003 29.1115 197.48 29.2427V21.777C196.606 21.5623 195.731 21.3476 194.845 21.133C193.958 20.9183 193.107 20.6559 192.292 20.3339H178.015V19.5707H190.755C189.751 18.9624 188.935 18.1753 188.285 17.2212C187.635 16.2671 187.316 15.0268 187.316 13.5122C187.316 12.1049 187.612 10.8766 188.203 9.81514C188.793 8.76565 189.573 7.88312 190.519 7.15563C191.464 6.44007 192.552 5.89147 193.769 5.49791C194.986 5.11628 196.227 4.88968 197.492 4.84198V0H198.201V4.86583C200.518 4.88968 202.645 5.3548 204.595 6.26118C206.533 7.16756 208.212 8.56291 209.642 10.4472L205.292 13.715C204.607 12.3554 203.626 11.3536 202.35 10.6977C201.073 10.0417 199.69 9.70781 198.213 9.68396V16.3148C199.005 16.4699 199.832 16.6369 200.683 16.8157C201.534 16.9946 202.373 17.1974 203.189 17.4359C204.004 17.6744 204.796 17.9726 205.541 18.3184C206.297 18.6643 206.971 19.0936 207.574 19.5945H217.667V20.3578H208.318ZM197.48 9.69588C197.008 9.71974 196.487 9.79129 195.932 9.91055C195.377 10.0298 194.868 10.2087 194.384 10.4472C193.911 10.6857 193.521 10.9958 193.214 11.3894C192.906 11.771 192.765 12.2481 192.765 12.8086C192.765 13.3095 192.883 13.7388 193.119 14.0847C193.355 14.4305 193.686 14.7406 194.112 15.003C194.537 15.2654 195.034 15.4919 195.613 15.6589C196.192 15.8378 196.807 15.9928 197.468 16.1598V9.69588H197.48ZM198.189 29.3023H198.544C199.099 29.3023 199.714 29.2546 200.399 29.1473C201.085 29.0399 201.723 28.8611 202.314 28.6106C202.905 28.3602 203.413 28.0024 203.815 27.5373C204.229 27.0722 204.43 26.4758 204.43 25.7603C204.43 25.1759 204.264 24.675 203.933 24.2695C203.602 23.8521 203.153 23.5063 202.586 23.232C202.019 22.9577 201.357 22.7191 200.589 22.5283C199.82 22.3375 199.017 22.1586 198.178 21.9678V29.3023H198.189Z" fill="#FF6482"/>
<path d="M240.004 20.3578V33.4884H237.747V39.9523H237.038V33.4884H234.816V20.3578H217.572V19.5945H234.816V10.4114H227.181V5.54562H237.026V0H237.735V5.54562H247.58V10.4114H239.945V19.5945H257.189V20.3578H240.004Z" fill="#FF6482"/>
<path d="M286.878 20.3578V26.5474C286.878 26.8694 286.889 27.2033 286.913 27.5492C286.937 27.895 287.008 28.2051 287.126 28.4914C287.244 28.7776 287.421 29.0042 287.658 29.195C287.894 29.3858 288.225 29.4693 288.65 29.4693H290.352L290.317 33.4645C289.785 33.5957 289.265 33.715 288.733 33.7984C288.201 33.8939 287.681 33.9416 287.149 33.9416C285.861 33.9416 284.821 33.6434 284.029 33.0471C283.237 32.4508 282.682 31.5086 282.363 30.2326C280.886 31.7472 279.195 32.8563 277.304 33.548V39.9761H276.595V33.8342C275.248 34.2039 273.901 34.3947 272.565 34.3947C271.454 34.3947 270.367 34.2039 269.279 33.8342C268.192 33.4645 267.235 32.9398 266.396 32.26C265.557 31.5802 264.871 30.7573 264.339 29.7794C263.807 28.8134 263.547 27.7281 263.547 26.5236C263.547 25.1401 263.784 23.9475 264.245 22.9338C264.706 21.9201 265.332 21.0733 266.124 20.3816H257.142V19.6184H267.105C268.393 18.7716 269.87 18.1395 271.537 17.746C273.203 17.3524 274.882 17.0662 276.595 16.9111V8.89684C276.406 8.87299 276.229 8.86106 276.04 8.86106C275.886 8.86106 275.697 8.86106 275.484 8.86106C273.581 8.86106 272.199 9.3381 271.312 10.3041C270.426 11.2582 270 12.6893 270.024 14.5736L264.883 14.2516L264.847 14.0489C264.847 12.5104 265.143 11.1509 265.734 9.99404C266.325 8.83721 267.117 7.85927 268.109 7.08408C269.102 6.29696 270.237 5.71258 271.513 5.33095C272.79 4.94931 274.125 4.74657 275.532 4.74657C275.721 4.74657 275.886 4.74657 276.052 4.74657C276.241 4.74657 276.418 4.7585 276.607 4.78235V0H277.316V4.83005C278.581 4.93739 279.798 5.16398 280.956 5.50984C282.115 5.85569 283.143 6.38044 284.017 7.07215C284.904 7.76386 285.601 8.64639 286.109 9.70781C286.618 10.7692 286.878 12.0572 286.878 13.5838V19.6064H296.77V20.3697H286.878V20.3578ZM273.841 21.5742C272.931 21.8485 272.116 22.1944 271.407 22.6118C270.698 23.0292 270.119 23.5182 269.669 24.1145C269.22 24.6989 268.996 25.3906 268.996 26.1896C268.996 26.929 269.138 27.5611 269.433 28.0859C269.729 28.6106 270.107 29.028 270.603 29.362C271.088 29.6959 271.643 29.9344 272.246 30.0775C272.849 30.2206 273.475 30.2922 274.102 30.2922C274.917 30.2922 275.744 30.1849 276.595 29.9702V20.8706C275.673 21.0614 274.752 21.2999 273.841 21.5742ZM277.304 16.8038C278.096 16.7561 278.865 16.7084 279.597 16.6607C280.33 16.6249 281.051 16.5772 281.736 16.5176V14.3232C281.736 12.4627 281.358 11.1389 280.59 10.3757C279.822 9.60048 278.734 9.12343 277.304 8.93262V16.8038ZM281.736 20.3578H279.916C279.125 20.4413 278.25 20.5605 277.304 20.7156V29.7317C278.652 29.2308 279.727 28.4079 280.531 27.2749C281.335 26.1419 281.736 24.7585 281.736 23.1008V20.3578Z" fill="#FF6482"/>
<path d="M319.119 20.3578V33.4884H316.862V39.9523H316.153V33.4884H313.931V20.3578H296.687V19.5945H313.931V10.4114H306.296V5.54562H316.141V0H316.85V5.54562H326.695V10.4114H319.06V19.5945H336.304V20.3578H319.119Z" fill="#FF6482"/>
<path d="M358.677 20.3578V29.3739H364.728V33.5599H356.419V39.9523H355.71V33.5599H347.402V29.3739H353.453V20.3578H336.245V19.5945H353.453V9.74359H347.402V5.54562H355.71V0H356.419V5.54562H364.728V9.73166H358.677V19.5945H375.885V20.3578H358.677Z" fill="#FF6482"/>
<path d="M375.802 19.5945H382.373V19.511C382.373 17.5671 382.669 15.7185 383.26 13.9654C383.851 12.2123 384.702 10.6619 385.813 9.3381C386.924 8.00239 388.271 6.94097 389.867 6.14192C391.462 5.34287 393.259 4.91354 395.268 4.86583V0H395.977V4.86583C397.986 4.92546 399.783 5.3548 401.378 6.16577C402.974 6.97674 404.321 8.05009 405.432 9.37388C406.543 10.7096 407.394 12.2361 407.985 13.9893C408.576 15.7424 408.871 17.579 408.871 19.523V19.6064H415.443V20.3697H408.871C408.789 22.2063 408.434 23.9475 407.808 25.5933C407.169 27.2391 406.307 28.6941 405.196 29.9702C404.085 31.2343 402.761 32.2481 401.201 32.9994C399.641 33.7627 397.903 34.1682 395.977 34.2159V39.9642H395.268V34.2159C393.318 34.192 391.557 33.7985 390.008 33.0352C388.448 32.2719 387.125 31.2701 386.014 30.0179C384.903 28.7657 384.04 27.3107 383.425 25.641C382.799 23.9833 382.456 22.2182 382.373 20.3459H375.802V19.5945ZM395.268 19.5945V9.74359C393.944 9.80322 392.821 10.1133 391.888 10.6977C390.954 11.2821 390.186 12.0334 389.571 12.9278C388.968 13.8342 388.519 14.8599 388.224 16.0048C387.928 17.1497 387.786 18.3184 387.786 19.523V19.5587V19.5945H395.268ZM395.268 20.3578H387.834C387.881 21.4788 388.07 22.5641 388.389 23.6136C388.708 24.6631 389.169 25.6052 389.772 26.4281C390.375 27.251 391.131 27.9189 392.041 28.4436C392.951 28.9684 394.027 29.2427 395.268 29.3023V20.3578ZM395.977 19.5945H403.411V19.4753C403.411 18.2826 403.269 17.1139 402.974 15.9809C402.678 14.8479 402.241 13.8342 401.65 12.9278C401.059 12.0215 400.291 11.2821 399.333 10.6977C398.376 10.1133 397.265 9.79129 395.977 9.74359V19.5945ZM395.977 20.3578V29.3023C397.194 29.2546 398.246 28.9684 399.156 28.4436C400.066 27.9189 400.823 27.251 401.425 26.4281C402.028 25.6052 402.489 24.6631 402.808 23.6136C403.127 22.5641 403.305 21.4788 403.364 20.3578H395.977Z" fill="#FF6482"/>
<path d="M446.739 20.3936V33.7269H441.633V20.3936H435.546V39.9881H434.837V20.3936H428.821V33.7269H423.68V20.3936H415.372V19.6303H423.645V5.47406H428.786V8.86106C429.554 7.8235 430.452 6.97675 431.481 6.30889C432.509 5.64103 433.632 5.18784 434.849 4.94932V0.0357819H435.558V4.83006C435.771 4.8062 435.972 4.78235 436.173 4.77043C436.374 4.7585 436.574 4.74657 436.787 4.74657C440.191 4.74657 442.697 5.65296 444.304 7.46572C445.911 9.27848 446.715 11.8426 446.715 15.1699V19.6422H455.024V20.4055H446.739V20.3936ZM434.825 19.5945V9.62433C432.982 9.839 431.504 10.5665 430.417 11.8187C429.33 13.071 428.774 14.6929 428.774 16.6846V19.5945H434.825ZM435.546 19.5945H441.633V15.5993C441.633 13.6315 441.207 12.1288 440.345 11.0912C439.494 10.0537 438.04 9.54085 436.019 9.54085H435.546V19.5945Z" fill="#FF6482"/>
</g>
<defs>
<clipPath id="clip0">
<rect width="455" height="40" fill="white"/>
</clipPath>
</defs>
</svg>
